<svg width="28" height="28" viewBox="0 0 28 28" fill="none" xmlns="http://www.w3.org/2000/svg">
<path fill-rule="evenodd" clip-rule="evenodd" d="M6.76718 11.9455C6.76718 7.95088 10.0059 4.71213 14.0005 4.71213C17.9951 4.71213 21.2338 7.95088 21.2338 11.9455V13.7595H23.1005V11.9455C23.1005 6.91995 19.026 2.84546 14.0005 2.84546C8.975 2.84546 4.90051 6.91995 4.90051 11.9455V13.7595H6.76718V11.9455ZM23.1005 21.1333V18.9272H21.2338V20.8975C20.3693 22.3724 18.2296 23.289 15.8247 23.289H15.0213V25.1556H15.8247C18.6391 25.1556 21.7508 24.0531 23.002 21.5507L23.1005 21.3536V21.1333Z" fill="black"/>
<path fill-rule="evenodd" clip-rule="evenodd" d="M5.83362 13.759H8.55618C9.05639 13.759 9.4637 14.1653 9.4637 14.6676V19.2042C9.4637 19.7044 9.05639 20.1117 8.55618 20.1117H5.83362V13.759Z" fill="black" stroke="black" stroke-width="1.86667"/>
<path fill-rule="evenodd" clip-rule="evenodd" d="M22.1666 13.759V20.1117H19.444C18.9438 20.1117 18.5365 19.7044 18.5365 19.2042V14.6676C18.5365 14.1653 18.9438 13.759 19.444 13.759H22.1666Z" fill="black" stroke="black" stroke-width="1.86667"/>
</svg>
